# xmcd
#
# Track frame offsets:
#	150
#	11175
#	24235
#	36525
#	50920
#	66520
#	82420
#	95467
#	110245
#	121450
#	137172
#	151492
#
# Disc length: 2261 seconds
#
# Revision: 1
# Processed by: cddbd v1.5PL3 Copyright (c) Steve Scherf et al.
# Submitted via: EasyCDDAExtractor 5.1.0
#
DISCID=b808d30c
DTITLE=Joe Isaacs - Heartfelt Pickin' and Singin' Vol 1
DYEAR=1996
DGENRE=Bluegrass
TTITLE0=Sword In My Hand
TTITLE1=Master's Bouquet
TTITLE2=Father's Blacksmith
TTITLE3=Rank Stranger
TTITLE4=Great Master Plan
TTITLE5=Pray For Me
TTITLE6=Spritual Strings
TTITLE7=What Would You Give (In Exchange For Your Soul)
TTITLE8=Brush Arbor
TTITLE9=Paul And Silas
TTITLE10=Ezekiel's Wheel
TTITLE11=Will You Miss Me When I'm Gone
EXTD=
EXTT0=
EXTT1=
EXTT2=
EXTT3=
EXTT4=
EXTT5=
EXTT6=
EXTT7=
EXTT8=
EXTT9=
EXTT10=
EXTT11=
PLAYORDER=
